#define noname_width 48
#define noname_height 48
static char noname_bits[] = {
 0x00,0x00,0x00,0x00,0x00,0x00,0x00,0x00,0xF8,0x3F,0x00,0x00,0x00,0x00,0xFF,
 0x3F,0x00,0x00,0x00,0x80,0xFF,0xFF,0x00,0x00,0x00,0xE0,0xFF,0xFF,0x03,0x00,
 0x00,0xF0,0xBF,0xFC,0x07,0x00,0x00,0xF8,0x0F,0xE0,0x0F,0x00,0x00,0xF8,0x03,
 0x00,0x0F,0x00,0x00,0xFC,0x01,0x00,0x0E,0x00,0x00,0xFE,0x00,0x00,0x04,0x00,
 0x00,0xFE,0x00,0x00,0x00,0x00,0x00,0x7F,0x00,0x00,0x08,0x00,0x00,0x7F,0x00,
 0x00,0x10,0x00,0x80,0x7F,0x00,0x00,0x10,0x00,0x80,0x3F,0x00,0x00,0x20,0x00,
 0x80,0x3F,0x00,0x00,0x00,0x00,0x80,0x3F,0x00,0x00,0x40,0x00,0xC0,0x3F,0x00,
 0x00,0x40,0x00,0xC0,0x3F,0x00,0x00,0x40,0x00,0xC0,0x3F,0x00,0x3D,0xC0,0x00,
 0x00,0x3F,0x80,0x60,0x60,0x00,0x00,0x7E,0x00,0x2C,0x70,0x00,0x00,0x3C,0x00,
 0x07,0x18,0x00,0x00,0x38,0x00,0x04,0x38,0x00,0x00,0x18,0x00,0x20,0x38,0x00,
 0x00,0x20,0x00,0x00,0x30,0x00,0x00,0x20,0x00,0x00,0x20,0x00,0x00,0x00,0x00,
 0x00,0x40,0x00,0x00,0x50,0x00,0x00,0x00,0x00,0x00,0x21,0x00,0x00,0x40,0x00,
 0x80,0x53,0x00,0x00,0x20,0x00,0x80,0x6F,0x00,0x00,0x20,0x00,0xC0,0x37,0x00,
 0x00,0x1A,0x00,0xC0,0xFF,0x00,0x80,0x0D,0x00,0xC0,0x6F,0x00,0x03,0x1C,0x00,
 0xE0,0xEF,0x81,0x02,0x06,0x00,0xC0,0x7F,0x01,0x80,0x07,0x00,0xE0,0x5F,0x83,
 0x00,0x06,0x00,0xC0,0xDF,0x06,0x00,0x06,0x00,0xE0,0x1F,0x0D,0x00,0x07,0x00,
 0xC0,0x3F,0x5D,0xC1,0x03,0x00,0xE0,0x3B,0xDA,0x00,0x06,0x00,0xC0,0x27,0xF4,
 0x01,0x02,0x00,0xC0,0x11,0xF8,0x0F,0x03,0x00,0x80,0x01,0xF0,0xFF,0x15,0x00,
 0x80,0x11,0xC0,0xFF,0x13,0x00,0x80,0x50,0xD0,0xFF,0x0D,0x00,0x00,0x41,0x80,
 0x3E,0x0B,0x00};
